#!OML:ASF F:\VICON\USERDATA\INSTALL\rory3\rory3.ASF
:FULLY-SPECIFIED
:DEGREES
212
root 1.00228 15.6264 -16.4042 30.9738 -1.18867 -2.70781
lowerback 25.7705 0.936989 1.47245
upperback 3.30653 1.9492 2.96158
thorax -10.7327 0.902905 1.81183
lowerneck -23.5257 -4.76644 -8.86221
upperneck 13.0915 -4.91956 7.0095
head 8.28781 -2.05803 3.12738
rclavicle -1.11319e-014 -9.93923e-015
rhumerus -23.3356 0.995112 -83.0392
rradius 77.9745
rwrist -6.78061
rhand -27.2796 28.0464
rfingers 7.12502
rthumb -0.690126 -1.93222
lclavicle -1.11319e-014 -9.93923e-015
lhumerus -22.669 1.57837 85.7639
lradius 71.6269
lwrist 15.3604
lhand -20.621 23.8009
lfingers 7.12502
lthumb 5.74026 53.7032
rfemur -67.3486 3.56834 25.3869
rtibia 67.4956
rfoot -23.4041 -14.2882
rtoes 2.54555
lfemur -70.1795 -0.279899 -18.4052
ltibia 68.819
lfoot -26.0551 6.13732
ltoes 0.114612
213
root 0.996109 15.6124 -16.3409 30.9196 -1.01885 -2.5328
lowerback 26.0649 0.881058 1.46573
upperback 3.35402 1.88279 2.95856
thorax -10.832 0.871729 1.83344
lowerneck -23.8047 -4.80449 -8.73998
upperneck 13.02 -4.96457 6.91163
head 8.3067 -2.07794 3.06485
rclavicle 8.74653e-015 5.96354e-015
rhumerus -22.7932 1.05833 -82.9396
rradius 77.5946
rwrist -6.65051
rhand -27.3013 27.3422
rfingers 7.12502
rthumb -0.711123 -2.63631
lclavicle 8.74653e-015 5.96354e-015
lhumerus -22.1931 1.4086 85.9791
lradius 71.016
lwrist 15.8643
lhand -20.9193 24.1463
lfingers 7.12502
lthumb 5.45225 54.0562
rfemur -67.1901 3.47708 25.301
rtibia 67.8569
rfoot -23.8079 -14.6609
rtoes 2.57016
lfemur -69.9595 -0.505904 -18.5071
ltibia 69.2008
lfoot -26.4829 6.35176
ltoes -0.124674
214
root 0.993417 15.5842 -16.2795 31.0472 -1.09931 -2.49677
lowerback 26.1796 0.942487 1.34317
upperback 3.29253 1.93471 2.96735
thorax -10.9684 0.900684 1.89587
lowerneck -23.6302 -4.74761 -8.64566
upperneck 12.8403 -4.90173 6.78815
head 8.20572 -2.05956 3.01648
rclavicle -5.96354e-015 1.86858e-014
rhumerus -22.366 1.14594 -82.861
rradius 77.0282
rwrist -6.68969
rhand -27.1974 27.336
rfingers 7.12502
rthumb -0.610705 -2.6429
lclavicle -5.96354e-015 1.86858e-014
lhumerus -21.7585 1.38001 86.174
lradius 70.0838
lwrist 16.1775
lhand -20.8129 23.3478
lfingers 7.12502
lthumb 5.55497 53.255
rfemur -67.2837 3.65995 25.1911
rtibia 68.2215
rfoot -24.1587 -14.96
rtoes 2.81421
lfemur -70.0505 -0.497951 -18.6058
ltibia 69.5757
lfoot -26.7103 6.6839
ltoes -0.494486
215
root 0.991512 15.5412 -16.2177 31.3752 -1.39042 -2.6821
lowerback 26.109 1.10978 1.3037
upperback 3.19964 2.13317 2.9171
thorax -11.0421 0.991994 1.79373
lowerneck -23.6178 -4.74097 -8.6248
upperneck 12.6545 -4.90458 6.85064
head 8.14234 -2.05347 3.03321
rclavicle -3.97569e-015 7.95139e-015
rhumerus -22.161 1.11019 -82.9254
rradius 76.833
rwrist -6.78322
rhand -27.1708 26.9757
rfingers 7.12502
rthumb -0.585068 -3.00326
lclavicle -3.97569e-015 7.95139e-015
lhumerus -21.235 1.23684 86.263
lradius 69.1969
lwrist 16.507
lhand -20.5478 22.3501
lfingers 7.12502
lthumb 5.81099 52.2504
rfemur -67.6434 4.14076 25.1728
rtibia 68.5619
rfoot -24.2918 -15.3006
rtoes 2.69106
lfemur -70.3871 -0.191445 -18.5903
ltibia 70.0069
lfoot -27.0451 6.88925
ltoes -0.781954
216
root 0.992732 15.4841 -16.165 32.2129 -1.86219 -2.92755
lowerback 25.3553 1.3581 1.22863
upperback 3.07556 2.40446 2.83153
thorax -10.7911 1.12038 1.6552
lowerneck -23.9463 -4.82028 -8.58859
upperneck 12.6192 -5.01176 6.94167
head 8.19444 -2.08663 3.04052
rclavicle 7.55382e-015 5.1684e-015
rhumerus -21.7215 1.03894 -82.9255
rradius 76.5192
rwrist -6.85769
rhand -26.9642 26.7679
rfingers 7.12502
rthumb -0.385498 -3.21147
lclavicle 7.55382e-015 5.1684e-015
lhumerus -20.5218 1.09702 86.3847
lradius 68.4657
lwrist 16.7609
lhand -20.4754 22.5064
lfingers 7.12502
lthumb 5.88081 52.4048
rfemur -68.6892 4.7653 25.0979
rtibia 68.9487
rfoot -24.1896 -15.6472
rtoes 1.83304
lfemur -71.3368 0.214534 -18.5661
ltibia 70.4904
lfoot -27.3213 7.05683
ltoes -0.707484
217
root 0.981449 15.5002 -16.0793 31.5541 -1.35759 -2.7919
lowerback 26.1259 1.16026 1.48324
upperback 3.26356 2.24396 2.90881
thorax -10.9736 1.03441 1.64205
lowerneck -24.1917 -4.85348 -8.60259
upperneck 12.5353 -5.0448 7.03264
head 8.21172 -2.08877 3.067
rclavicle 3.97569e-016 -1.11319e-014
rhumerus -20.803 1.10032 -82.8824
rradius 75.6596
rwrist -6.95074
rhand -26.9951 26.5853
rfingers 7.12502
rthumb -0.415324 -3.39399
lclavicle 3.97569e-016 -1.11319e-014
lhumerus -19.8841 1.10285 86.5855
lradius 67.768
lwrist 16.7357
lhand -20.5957 22.7408
lfingers 7.12502
lthumb 5.7647 52.6423
rfemur -67.5362 4.49617 25.2383
rtibia 69.1346
rfoot -24.7675 -16.2047
rtoes 1.62687
lfemur -70.2232 -0.191657 -18.4356
ltibia 70.658
lfoot -27.9029 7.14139
ltoes -0.621744
218
root 0.976274 15.4867 -16.0047 31.6021 -1.3845 -2.77757
lowerback 26.1815 1.19565 1.45752
upperback 3.2563 2.28189 2.89063
thorax -11.0122 1.05213 1.62262
lowerneck -24.1982 -4.85419 -8.56533
upperneck 12.2056 -5.06028 7.1261
head 8.10428 -2.08464 3.08899
rclavicle 5.96354e-015 1.74931e-014
rhumerus -20.0534 1.09519 -82.91
rradius 74.9817
rwrist -7.10879
rhand -26.8281 26.4829
rfingers 7.12502
rthumb -0.254089 -3.49674
lclavicle 5.96354e-015 1.74931e-014
lhumerus -19.3798 1.08555 86.7401
lradius 67.1555
lwrist 16.6868
lhand -20.7665 22.743
lfingers 7.12502
lthumb 5.59979 52.649
rfemur -67.3704 4.68255 25.1648
rtibia 69.369
rfoot -25.1429 -16.4909
rtoes 1.60749
lfemur -70.0532 -0.205655 -18.4651
ltibia 70.8964
lfoot -28.2229 7.45784
ltoes -1.23224
219
root 0.980503 15.4612 -15.9317 32.1262 -1.60184 -2.92506
lowerback 25.703 1.28005 1.55794
upperback 3.11172 2.39556 2.77735
thorax -10.9175 1.09884 1.40356
lowerneck -24.2774 -4.85747 -8.35937
upperneck 12.0491 -5.11689 7.11454
head 8.06307 -2.1012 3.04234
rclavicle 3.97569e-016 0
rhumerus -19.9384 1.06963 -82.9996
rradius 75.0431
rwrist -7.383
rhand -26.3339 26.5696
rfingers 7.12502
rthumb 0.223266 -3.40999
lclavicle 3.97569e-016 0
lhumerus -18.903 0.92416 86.7387
lradius 66.5955
lwrist 16.7121
lhand -21.1131 22.3057
lfingers 7.12502
lthumb 5.26515 52.2203
rfemur -67.7694 5.06936 25.1166
rtibia 69.5427
rfoot -25.2963 -16.8277
rtoes 1.07752
lfemur -70.5325 -0.0455502 -18.4516
ltibia 71.1333
lfoot -28.2487 7.77772
ltoes -2.21748
220
root 0.98122 15.4505 -15.8492 32.2931 -1.60732 -2.95913
lowerback 25.5523 1.26121 1.72426
upperback 3.05611 2.40428 2.69318
thorax -10.8902 1.09401 1.21235
lowerneck -24.6463 -4.81858 -8.2033
upperneck 12.1783 -5.08241 7.06423
head 8.15779 -2.07486 3.00322
rclavicle -9.14409e-015 -2.34566e-014
rhumerus -19.7863 1.04637 -83.0923
rradius 75.1111
rwrist -7.56863
rhand -26.2165 26.807
rfingers 7.12502
rthumb 0.336626 -3.17244
lclavicle -9.14409e-015 -2.34566e-014
lhumerus -18.4743 0.843507 86.7593
lradius 66.2922
lwrist 16.6653
lhand -21.1746 23.1459
lfingers 7.12502
lthumb 5.20574 53.0619
rfemur -67.6442 5.25411 25.0867
rtibia 69.6739
rfoot -25.673 -17.2195
rtoes 1.69544
lfemur -70.5337 -0.0579734 -18.4425
ltibia 71.3599
lfoot -28.3707 7.9414
ltoes -3.45714
221
root 0.972762 15.4444 -15.758 32.2941 -1.51056 -3.00934
lowerback 25.4953 1.23576 1.80662
upperback 3.03909 2.39694 2.72476
thorax -10.8774 1.0882 1.20378
lowerneck -24.9549 -4.75673 -8.23413
upperneck 12.2541 -4.97336 7.10154
head 8.22635 -2.01458 3.0356
rclavicle 1.70955e-014 2.50469e-014
rhumerus -19.342 1.16442 -83.1092
rradius 74.9061
rwrist -7.75783
rhand -26.5926 26.9064
rfingers 7.12502
rthumb -0.0265847 -3.07338
lclavicle 1.70955e-014 2.50469e-014
lhumerus -18.1739 0.898006 86.8714
lradius 66.2663
lwrist 16.7804
lhand -21.2897 24.9547
lfingers 7.12502
lthumb 5.09458 54.8735
rfemur -67.2007 5.46401 25.1222
rtibia 69.731
rfoot -26.1332 -17.5783
rtoes 2.98046
lfemur -70.2829 -0.0585006 -18.3537
ltibia 71.6005
lfoot -28.5652 8.21242
ltoes -5.34604
